<svg xmlns="http://www.w3.org/2000/svg" xmlns:xlink="http://www.w3.org/1999/xlink" width="163.314" height="30"
     viewBox="0 0 163.314 30">
    <defs>
        <linearGradient id="a" x1="0.5" x2="0.5" y2="1" gradientUnits="objectBoundingBox">
            <stop offset="0" stop-color="#d8002c"/>
            <stop offset="1" stop-color="#ff00a1"/>
        </linearGradient>
    </defs>
    <text transform="translate(27.314 24)" fill="#fe005f" font-size="25" font-family="Montserrat-Bold, Montserrat"
          font-weight="700">
        <tspan x="0" y="0">bigpromo.</tspan>
    </text>
    <g transform="translate(-9.867 -3.949)">
        <path d="M18.792,3.949A1.137,1.137,0,0,0,17.677,5.1c0,5.837-7.81,10.384-7.81,18.462,0,6.134,6.43,10.106,8.7,10.364a1.509,1.509,0,0,0,.23.021A1.138,1.138,0,0,0,19.909,32.8a1.174,1.174,0,0,0-.415-.9h0c-1.011-.852-2.932-3.321-2.932-5.575a5.648,5.648,0,0,1,3.347-5.068c-1.91,5.586,4.343,6.262,5.6,11.794h0a1.116,1.116,0,0,0,1.084.9,1.081,1.081,0,0,0,.654-.219.6.6,0,0,0,.062-.05,12.368,12.368,0,0,0,4.864-10.115,30.25,30.25,0,0,0-2.305-9.647v0a0,0,0,0,1,0,0,1.118,1.118,0,0,0-1.038-.729,1.132,1.132,0,0,0-1.1.941v.009A6.926,6.926,0,0,1,25.487,17.8c0-5.438-3.8-11.054-5.8-13.378-.031-.041-.062-.082-.095-.119A1.11,1.11,0,0,0,18.792,3.949Z"
              transform="translate(0 0)" fill="url(#a)"/>
    </g>
</svg>