<svg xmlns="http://www.w3.org/2000/svg" width="14.876" height="20" viewBox="0 0 14.876 20"><path d="M15.817,3.949a.758.758,0,0,0-.743.769c0,3.892-5.206,6.923-5.206,12.308,0,4.09,4.286,6.737,5.8,6.909a1.006,1.006,0,0,0,.153.014.758.758,0,0,0,.745-.769.783.783,0,0,0-.277-.6h0a5.845,5.845,0,0,1-1.955-3.716,3.765,3.765,0,0,1,2.232-3.379c-1.273,3.724,2.9,4.175,3.736,7.862h0a.744.744,0,0,0,.723.6.721.721,0,0,0,.436-.146.4.4,0,0,0,.041-.033,8.245,8.245,0,0,0,3.243-6.743A20.167,20.167,0,0,0,23.206,10.6v0a0,0,0,0,1,0,0,.745.745,0,0,0-.692-.486.754.754,0,0,0-.733.627v.006a4.617,4.617,0,0,1-1.5,2.444c0-3.625-2.53-7.369-3.864-8.919-.021-.027-.041-.055-.063-.079A.74.74,0,0,0,15.817,3.949Z" transform="translate(-9.867 -3.949)" fill="#f9496b"/></svg>